<svg id="Layer_3" data-name="Layer 3" xmlns="http://www.w3.org/2000/svg" viewBox="0 0 407.77 291.79"><defs><style>.cls-1{fill:#2e479d;}.cls-2{fill:#536db4;}.cls-3{fill:#3d5599;}</style></defs><path class="cls-1" d="M519.73,440.66c-1.63.5-2.48,1.94-3.59,3Q474.81,485,433.56,526.3c-1.82,1.83-3,2.8-5.38.41Q372.62,470.94,316.9,415.32a8.42,8.42,0,0,1-.73-.94,22.74,22.74,0,0,1-4.32-3.45q-41.3-41.34-82.62-82.65c-1-1-2.28-1.88-2.64-3.42,3.52-3.61,7-7.25,10.58-10.82q37.2-37.25,74.45-74.45c4.34-4.33,3.3-4.3,7.5-.11q98.72,98.68,197.41,197.4c1,1,2.13,2,3.2,3Z" transform="translate(-111.96 -236.34)"/><path class="cls-2" d="M298.68,430.32c-.79.88-1.54,1.81-2.38,2.65q-46.37,46.39-92.69,92.81c-2.63,2.64-4.13,3-6.93.13q-41.43-41.73-83.14-83.18c-1.87-1.86-2.27-2.87-.17-5Q160.43,391,207.31,344c.56-.55,1.22-1,1.83-1.5,2-.55,2.81,1.11,3.89,2.12,28.38,26.74,55.38,54.88,83.1,82.28C297.15,427.87,298.4,428.75,298.68,430.32Z" transform="translate(-111.96 -236.34)"/><path class="cls-3" d="M298.68,430.32c-1.19-1.05-2.44-2-3.56-3.16q-35.53-35.51-71.08-71c-4.78-4.75-9.92-9.14-14.9-13.7,1.91-3.94,5.55-6.32,8.48-9.31s5.29-6.28,9-8.28a33.14,33.14,0,0,1,2.75,2.24q42.43,42.39,84.84,84.83a29.38,29.38,0,0,1,2,2.44c-1.77-.15-2.51,1.32-3.52,2.3C308,421.2,303.33,425.77,298.68,430.32Z" transform="translate(-111.96 -236.34)"/></svg>