<svg id="Layer_1" data-name="Layer 1" xmlns="http://www.w3.org/2000/svg" width="383.24" height="269.59" viewBox="0 0 383.24 269.59"><defs><style>.cls-1{fill:#fff;}</style></defs><path class="cls-1" d="M539,163.6c-1.9,2.7-3.3,6.13-5.85,7.89a18.66,18.66,0,0,1-10,3.2q-175.89.23-351.76.12c-9.12,0-15.65-6.28-15.65-15s6.52-14.94,15.66-14.94H449.08c23.57,0,47.15.28,70.72-.14,9.2-.16,15.68,2.69,19.2,11.36Z" transform="translate(-155.76 -144.76)"/><path class="cls-1" d="M539,283.37c-1.9,2.69-3.3,6.12-5.85,7.89a18.65,18.65,0,0,1-10,3.19q-175.89.24-351.76.13c-9.12,0-15.65-6.28-15.65-15s6.52-14.94,15.66-14.94H449.08c23.57,0,47.15.28,70.72-.14,9.2-.17,15.68,2.69,19.2,11.35Z" transform="translate(-155.76 -144.76)"/><path class="cls-1" d="M539,403.13c-1.9,2.7-3.3,6.13-5.85,7.89a18.66,18.66,0,0,1-10,3.2q-175.89.22-351.76.12c-9.12,0-15.65-6.28-15.65-14.95s6.52-14.95,15.66-14.95H449.08c23.57,0,47.15.29,70.72-.14,9.2-.16,15.68,2.7,19.2,11.36Z" transform="translate(-155.76 -144.76)"/></svg>