<svg id="Layer_2" data-name="Layer 2" xmlns="http://www.w3.org/2000/svg" width="383.25" height="379.81" viewBox="0 0 383.25 379.81"><defs><style>.cls-1{fill:#fff;}</style></defs><path class="cls-1" d="M488,564.75c-2.53,5.63-4.18,11.92-7.77,16.76-8.87,12-21.7,14.57-35.77,12.82-9.17-1.15-16.52-5.69-23-12.17q-61.05-61.32-122.2-122.53a56,56,0,0,1-3.62-4.67c-1.44,2.16-2.09,3.6-3.13,4.64q-61.87,62.08-123.82,124.11C156.3,596.15,135,598.61,120,589.35c-16.19-10-20.31-34-8.57-50.22a56,56,0,0,1,5.67-6.46Q179,470.6,241,408.6a28.24,28.24,0,0,1,4-2.81l.14-1.83a21.47,21.47,0,0,1-3.77-2.42Q179.63,339.81,118,278c-10.44-10.45-14.07-22.9-9.78-37s14.23-22.72,28.72-25.26c12-2.11,22.74,1.31,31.49,10q61.47,61.17,122.85,122.42a58,58,0,0,1,4.18,5.25l1.8.2a23.21,23.21,0,0,1,2.68-4.06q60.93-61.17,122-122.25C442,207.23,475,214.92,483,241.67c4,13.48,1.3,25.79-8.76,35.9q-61.44,61.73-123,123.29c-1.06,1.05-2.35,1.86-4.39,3.47,2.09,1.71,3.62,2.76,4.91,4.05q58.82,58.51,117.64,117c8.21,8.14,16.23,16.19,18.66,28.09Z" transform="translate(-104.75 -215.13)"/></svg>