<svg id="Layer_1" data-name="Layer 1" xmlns="http://www.w3.org/2000/svg" width="141.21mm" height="140.53mm" viewBox="0 0 400.27 398.35"><defs><style>.cls-1{fill:#fff;}</style></defs><path d="M498,284.21c-1,3.73-1.44,7.81-3.27,11.11-3.18,5.74-6.47,11.75-11,16.34q-87.32,87.85-175.13,175.23a19.06,19.06,0,0,1-7.9,4.6c-26.76,7.62-53.58,15-80.4,22.44-10.26,2.83-16.57-3.4-13.76-13.61q11.07-40.24,22.39-80.41a18.93,18.93,0,0,1,4.57-7.93q87.58-87.87,175.4-175.51c19-18.94,46.2-18.79,65.24,0,3.34,3.3,6.63,6.64,9.95,9.94,7.13,7.09,11.81,15.46,13.32,25.49a5.79,5.79,0,0,0,.63,1.37ZM300.6,465.92,445.07,321.45,399,275.37,254.52,419.83ZM413.33,259.31l46.59,46.59c4-3.66,8.8-7.21,12.6-11.58a23.76,23.76,0,0,0,.16-30.53,131.11,131.11,0,0,0-16.3-16.18c-7.7-6.31-17-7.38-25.53-2.47C424.35,248.88,419,254.62,413.33,259.31ZM229.93,490.56l50.91-14.14L244,439.62C239.45,456.15,234.8,473,229.93,490.56Z" transform="translate(-97.76 -222.32)"/><path d="M287.32,620.59q-69,0-138,0c-23.21,0-41.78-12.76-48.76-33.81a54.62,54.62,0,0,1-2.68-16.84q-.25-129-.09-258c0-28.8,21.25-50.29,50.34-50.63,28.92-.34,57.85-.11,86.77-.06,6.67,0,11.23,4.22,11.19,10s-4.75,9.86-11.31,9.87c-28.53,0-57.06,0-85.6,0-15.41,0-26.71,8.53-30.47,23a38.6,38.6,0,0,0-1,9.67q-.08,127.22,0,254.44c0,16.18,8,27.39,22.37,31.32a37.29,37.29,0,0,0,9.65,1.17q137.77.09,275.55,0c19.27,0,31.95-12.82,32-32.22q.06-42.4,0-84.81c0-6.11,3.22-10.39,8.22-11.14,6.41-1,11.52,3.54,11.55,10.5.09,15.63.05,31.27,0,46.9,0,14.46.23,28.93-.18,43.38-.7,25.16-21.69,46.48-46.95,47-28.78.58-57.58.23-86.37.26Q315.46,620.62,287.32,620.59Z" transform="translate(-97.76 -222.32)"/><path class="cls-1" d="M300.6,465.92l-46.08-46.09L399,275.37l46.09,46.08Z" transform="translate(-97.76 -222.32)"/><path class="cls-1" d="M413.33,259.31c5.67-4.69,11-10.43,17.52-14.17,8.55-4.91,17.83-3.84,25.53,2.47a131.11,131.11,0,0,1,16.3,16.18,23.76,23.76,0,0,1-.16,30.53c-3.8,4.37-8.56,7.92-12.6,11.58Z" transform="translate(-97.76 -222.32)"/><path class="cls-1" d="M229.93,490.56c4.87-17.58,9.52-34.41,14.1-50.94l36.81,36.8Z" transform="translate(-97.76 -222.32)"/></svg>