<svg id="Layer_2" data-name="Layer 2" xmlns="http://www.w3.org/2000/svg" viewBox="0 0 384 215.7"><defs><style>.cls-1{fill:#fff;}.cls-2{fill:#ccc;}</style></defs><path class="cls-1" d="M90,353.25c1.43-6.81,2.24-13.82,4.39-20.4,14.1-43.09,43.55-68.7,88.32-76.36a99,99,0,0,1,16.41-1.25q82.88-.13,165.75,0c50.47.08,92.59,32.2,105.6,80.49,1.55,5.75,2.37,11.69,3.53,17.55v19.5c-1.23,6.09-2,12.34-3.78,18.26-13.12,43.28-42.08,69.32-86.34,78.21a99,99,0,0,1-19,1.53q-82.87.17-165.74,0c-50.44-.09-92.61-32.26-105.61-80.49C92,384.55,91.15,378.6,90,372.75ZM281.9,447.9v.1c27.36,0,54.73.1,82.09-.08a111.29,111.29,0,0,0,19.72-1.73c45.21-8.51,75.75-55.64,66-100.58-8.3-38.21-42.36-67.71-83.27-67.63-56.35.12-112.71,0-169.07.08a78.33,78.33,0,0,0-14.52,1.19c-48.57,9.27-78.68,54.9-68.1,103,8.09,36.72,41.85,65,79.43,65.6C223.41,448.29,252.66,447.9,281.9,447.9Z" transform="translate(-90 -255.15)"/><path class="cls-2" d="M281.9,447.9c-29.24,0-58.49.39-87.72-.1-37.58-.64-71.34-28.88-79.43-65.6-10.58-48.05,19.53-93.68,68.1-102.95a78.33,78.33,0,0,1,14.52-1.19c56.36-.08,112.72,0,169.07-.08,40.91-.08,75,29.42,83.27,67.63,9.75,44.94-20.79,92.07-66,100.58A111.29,111.29,0,0,1,364,447.92c-27.36.18-54.73.08-82.09.08Zm84.43-25.45a59.45,59.45,0,1,0-59.52-59.57A59.61,59.61,0,0,0,366.33,422.45Z" transform="translate(-90 -255.15)"/><path class="cls-1" d="M366.33,422.45a59.45,59.45,0,1,1,59.58-59.53A59.56,59.56,0,0,1,366.33,422.45Zm36.78-57.79c1.43-18.92-14.14-36.87-33.32-38.41-21.22-1.71-38.66,13.56-40.28,35.27-1.4,18.75,14.51,36.87,33.58,38.24C384.31,401.29,401.47,386.24,403.11,364.66Z" transform="translate(-90 -255.15)"/><path class="cls-1" d="M403.11,364.66c-1.64,21.58-18.8,36.63-40,35.1-19.07-1.37-35-19.49-33.58-38.24,1.62-21.71,19.06-37,40.28-35.27C389,327.79,404.54,345.74,403.11,364.66Z" transform="translate(-90 -255.15)"/></svg>